<?xml version="1.0" encoding="UTF-8" standalone="no"?>
<svg width="29px" height="25px" viewBox="0 0 29 25" version="1.1" xmlns="http://www.w3.org/2000/svg" xmlns:xlink="http://www.w3.org/1999/xlink">
    <!-- Generator: Sketch 3.7 (28169) - http://www.bohemiancoding.com/sketch -->
    <title>Redneck-Anything</title>
    <desc>Created with Sketch.</desc>
    <defs></defs>
    <g id="Page-1" stroke="none" stroke-width="1" fill="none" fill-rule="evenodd">
        <path d="M14.7726,9.9739 L16.9446,2.3179 C17.7106,2.3179 19.9916,3.0369 19.0536,6.3959 C18.1166,9.7549 14.7726,9.9739 14.7726,9.9739 M27.0016,19.9579 C25.5856,19.9579 25.7726,21.3959 25.7726,21.3959 C25.7726,21.3959 25.9636,22.4519 25.3556,22.6039 C24.6896,22.7709 23.5016,22.6249 22.1476,20.1669 C20.7936,17.7079 18.0226,11.4579 18.0226,11.4579 C18.0226,11.4579 21.6096,10.2769 22.8556,7.1249 C23.9606,4.3329 22.9256,2.8949 22.5646,2.3539 C22.5646,2.3539 20.9396,-0.0001 17.7106,-0.0001 L11.3556,-0.0001 L10.8606,2.1129 L12.8976,2.1149 C12.8976,2.1149 8.9426,16.1879 7.3036,18.8019 C5.8346,21.1459 3.8766,19.9789 3.8766,19.9789 C3.8766,19.9789 1.8666,19.0209 2.3766,15.5419 C2.8066,12.6119 4.9616,10.7339 8.5656,11.5249 C8.5656,11.5249 7.6686,8.4479 5.0846,9.0519 C0.6286,10.0939 -0.0404,15.9789 0.0016,16.6039 C0.0436,17.2289 -0.3734,22.0829 4.5436,23.0419 C9.4596,23.9999 10.9946,19.9659 11.3976,19.0209 L14.1266,11.8539 C14.1266,11.8539 16.9666,19.9399 19.9806,22.7369 C22.3976,24.9789 25.3356,24.6249 25.3356,24.6249 C25.3356,24.6249 28.6686,24.6449 28.4806,21.3959 C28.4806,21.3959 28.4186,19.9579 27.0016,19.9579" id="Redneck-Anything" fill="#FFFFFF"></path>
    </g>
</svg>
